<?xml version="1.0" encoding="utf-8"?>
<!-- Generator: Adobe Illustrator 15.0.0, SVG Export Plug-In . SVG Version: 6.00 Build 0)  -->
<!DOCTYPE svg PUBLIC "-//W3C//DTD SVG 1.1//EN" "http://www.w3.org/Graphics/SVG/1.1/DTD/svg11.dtd">
<svg version="1.1" xmlns="http://www.w3.org/2000/svg" xmlns:xlink="http://www.w3.org/1999/xlink" x="0px" y="0px" width="1560px"
	 height="1560px" viewBox="20 20 1560 1560" enable-background="new 20 20 1560 1560" xml:space="preserve">
<g id="Layer_1">
	<g id="base">
		<path fill="none" d="M800.5,49.506c414.201,0,750,336.016,750,750.491c0,414.474-335.799,750.49-750,750.49
			c-414.204,0-750-336.016-750-750.49S386.296,49.506,800.5,49.506 M800.5,48.505c-101.381,0-199.732,19.87-292.319,59.058
			c-44.5,18.834-87.42,42.147-127.563,69.288c-39.771,26.884-77.162,57.758-111.146,91.765
			c-33.984,34.007-64.838,71.425-91.704,111.219c-27.124,40.174-50.421,83.123-69.243,127.651
			C69.357,600.133,49.5,698.548,49.5,799.997c0,101.449,19.857,199.864,59.019,292.511c18.822,44.527,42.119,87.477,69.243,127.645
			c26.866,39.799,57.72,77.213,91.704,111.221c33.984,34,71.379,64.879,111.146,91.762c40.146,27.143,83.063,50.455,127.563,69.283
			c92.593,39.199,190.944,59.07,292.325,59.07s199.73-19.871,292.318-59.059c44.5-18.834,87.42-42.146,127.563-69.289
			c39.771-26.883,77.161-57.764,111.146-91.764c33.979-34.006,64.839-71.426,91.703-111.219
			c27.125-40.172,50.423-83.117,69.239-127.646c39.173-92.652,59.03-191.067,59.03-292.515c0-101.447-19.857-199.862-59.02-292.511
			c-18.822-44.529-42.119-87.477-69.243-127.646c-26.866-39.793-57.728-77.212-91.705-111.219
			c-33.984-34.008-71.379-64.881-111.146-91.765c-40.146-27.142-83.063-50.455-127.563-69.289
			C1000.23,68.375,901.881,48.505,800.5,48.505L800.5,48.505z"/>
	</g>
	<g id="PlanetTrack">
		<g>
			
				<radialGradient id="SVGID_1_" cx="-172.459" cy="2525.4121" r="602.6553" gradientTransform="matrix(0.998 0 0 -0.9987 972.6235 3322.0188)" gradientUnits="userSpaceOnUse">
				<stop  offset="0.0303" style="stop-color:#FFC564;stop-opacity:0"/>
				<stop  offset="0.85" style="stop-color:#A55212;stop-opacity:0.8"/>
				<stop  offset="0.89" style="stop-color:#FFC564;stop-opacity:0.6"/>
				<stop  offset="0.96" style="stop-color:#FFC564;stop-opacity:0.8"/>
				<stop  offset="1" style="stop-color:#A55212"/>
			</radialGradient>
			<path fill="url(#SVGID_1_)" d="M800.499,1401.857c-81.196,0-159.966-15.93-234.117-47.303
				c-71.608-30.307-135.929-73.709-191.168-128.984c-55.238-55.277-98.608-119.623-128.896-191.295
				c-31.36-74.198-47.26-153.021-47.26-234.269c0-81.246,15.901-160.068,47.26-234.271
				c30.288-71.655,73.659-136.018,128.896-191.292c55.239-55.274,119.56-98.672,191.168-128.981
				c74.151-31.378,152.92-47.291,234.117-47.291c81.194,0,159.964,15.912,234.117,47.291
				c71.624,30.309,135.928,73.708,191.17,128.981c55.238,55.275,98.608,119.635,128.891,191.293
				c31.364,74.199,47.283,153.021,47.283,234.268c0,81.25-15.921,160.071-47.283,234.27
				c-30.276,71.672-73.649,136.018-128.891,191.295c-55.242,55.273-119.546,98.676-191.17,128.984
				C960.463,1385.928,881.693,1401.857,800.499,1401.857z M800.497,292.042c-279.896,0-507.624,227.876-507.624,507.957
				c0,280.1,227.729,507.958,507.624,507.958c279.923,0,507.63-227.857,507.63-507.958
				C1308.126,519.917,1080.42,292.042,800.497,292.042z"/>
		</g>
	</g>
</g>
<g id="Layer_2">
</g>
</svg>
