<svg xmlns="http://www.w3.org/2000/svg" width="23px" height="23px" viewBox="0 0 23 23"><g stroke="none" stroke-width="1" fill="none" fill-rule="evenodd"><g fill="white" fill-rule="nonzero"><path d="M23,3.3310004 L19.6754152,0 L16.3508303,3.33095547 L17.6191068,4.60166229 L18.8090465,3.40944242 L18.8090465,7.63506822 C18.8090465,11.3688365 16.0055115,14.4585805 12.3968155,14.9029505 L12.3968155,3.4247175 L13.5715093,4.60166229 L14.8397859,3.33095547 L11.515201,0 L8.19061619,3.3310004 L9.45889271,4.60170721 L10.6031845,3.45522273 L10.6031845,14.9029505 C6.99448848,14.4585805 4.19095347,11.3688814 4.19095347,7.63506822 L4.19095347,3.40948735 L5.38089315,4.60170721 L6.64916967,3.3310004 L3.32458483,0 L0,3.3310004 L1.26827652,4.60170721 L2.39732242,3.47049781 L2.39732242,7.63506822 C2.39732242,12.3607282 6.00332797,16.2581195 10.6031845,16.7109357 L10.6031845,18.9565969 L8.36114566,18.9565969 L8.36114566,20.7536649 L10.6031845,20.7536649 L10.6031845,23 L12.3968155,23 L12.3968155,20.7536649 L14.6388543,20.7536649 L14.6388543,18.9565969 L12.3968155,18.9565969 L12.3968155,16.7109357 C16.996672,16.2581195 20.6026776,12.3607731 20.6026776,7.63506822 L20.6026776,3.47049781 L21.7317235,4.60170721 L23,3.3310004 Z"></path></g></g></svg>