<svg xmlns="http://www.w3.org/2000/svg" width="23px" height="23px" viewBox="0 0 23 23"><g stroke="none" stroke-width="1" fill="none" fill-rule="evenodd"><g transform="translate(3.000000, 0.000000)" fill="white" fill-rule="nonzero"><path d="M13.9257813,19.8554688 C13.9257813,20.5985664 13.3212227,21.203125 12.578125,21.203125 C11.8350273,21.203125 11.2304688,20.5985664 11.2304688,19.8554688 C11.2304688,18.8825508 11.9791816,17.8276055 12.7717832,16.7107578 C13.7338301,15.3551504 14.8242188,13.8187324 14.8242188,11.9941406 C14.8242188,8.52635156 12.0029453,5.70507813 8.53515625,5.70507813 C6.77700391,5.70507813 5.18533203,6.43056641 4.04296875,7.59754687 L4.04296875,4.04296875 L6.2890625,4.04296875 L6.2890625,2.24609375 L4.04296875,2.24609375 L4.04296875,0 L2.24609375,0 L2.24609375,2.24609375 L0,2.24609375 L0,4.04296875 L2.24609375,4.04296875 L2.24609375,19.40625 L4.04296875,19.40625 L4.04296875,11.9941406 C4.04296875,9.51714844 6.05816406,7.50195312 8.53515625,7.50195312 C11.0121484,7.50195312 13.0273438,9.51714844 13.0273438,11.9941406 C13.0273438,13.2459336 12.1914375,14.4237852 11.3064316,15.6708164 C10.385668,16.9682051 9.43359375,18.309752 9.43359375,19.8554688 C9.43359375,21.5893633 10.8442305,23 12.578125,23 C14.3120195,23 15.7226563,21.5893633 15.7226563,19.8554688 L13.9257813,19.8554688 Z"></path></g></g></svg>