<svg xmlns="http://www.w3.org/2000/svg" width="23px" height="23px" viewBox="0 0 23 23"><g stroke="none" stroke-width="1" fill="none" fill-rule="evenodd"><path d="M20.0703125,8.53515625 C20.0703125,3.82882617 16.2414863,1.13686838e-13 11.5351562,1.13686838e-13 C6.82882617,1.13686838e-13 3,3.82882617 3,8.53515625 C3,12.9534473 6.37457617,16.5981387 10.6816406,17.0277715 L10.6816406,18.9121094 L8.43554688,18.9121094 L8.43554688,20.7089844 L10.6816406,20.7089844 L10.6816406,23 L12.4785156,23 L12.4785156,20.7089844 L14.7246094,20.7089844 L14.7246094,18.9121094 L12.4785156,18.9121094 L12.4785156,17.0179336 C16.7425,16.5468828 20.0703125,12.9226309 20.0703125,8.53515625 Z M4.796875,8.53515625 C4.796875,4.81966797 7.81966797,1.796875 11.5351562,1.796875 C15.2506445,1.796875 18.2734375,4.81966797 18.2734375,8.53515625 C18.2734375,12.2506445 15.2506445,15.2734375 11.5351562,15.2734375 C7.81966797,15.2734375 4.796875,12.2506445 4.796875,8.53515625 Z" fill="white" fill-rule="nonzero"></path></g></svg>