<svg xmlns="http://www.w3.org/2000/svg" width="23px" height="23px" viewBox="0 0 23 23"><g stroke="none" stroke-width="1" fill="none" fill-rule="evenodd"><g transform="translate(1.500000, 0.000000)" fill="white" fill-rule="nonzero"><path d="M16.8457031,16.7558594 L16.8457031,0 L15.0488281,0 L15.0488281,16.7558594 L4.55453906,16.7558594 C6.50176758,15.5137246 7.93661719,13.9500391 8.915375,12.6299199 C10.887041,9.97054492 11.7695762,7.2942793 11.7695762,5.82160547 C11.7695312,2.61157813 9.15795312,0 5.94788086,0 C2.71777344,0 0.08984375,2.59958398 0.08984375,5.79492188 L1.88671875,5.79492188 C1.88671875,3.59038086 3.70857031,1.796875 5.94788086,1.796875 C8.16715625,1.796875 9.97265625,3.602375 9.97265625,5.82165039 C9.97265625,6.99698633 9.11366016,9.34536719 7.47190039,11.559791 C6.09190039,13.4211289 3.56774023,15.8235957 0,16.7558594 L0,18.5527344 L15.0488281,18.5527344 L15.0488281,23 L16.8457031,23 L16.8457031,18.5527344 L19.0917969,18.5527344 L19.0917969,16.7558594 L16.8457031,16.7558594 Z"></path></g></g></svg>