<svg xmlns="http://www.w3.org/2000/svg" width="23px" height="23px" viewBox="0 0 23 23"><g stroke="none" stroke-width="1" fill="none" fill-rule="evenodd"><path d="M19.1029218,1.23403395 L17.7884513,0.00952124315 C17.7619535,0.0377705919 15.0931311,2.83472559 11.2983767,2.83472559 C7.49477481,2.83472559 4.73972227,0.0283391718 4.71237115,1.13686838e-13 L4.0648817,0.62256355 L3.416,1.24368993 C3.50788898,1.33971077 5.06083967,2.93487829 7.53654253,3.90150903 C5.4845799,5.16814875 4.11397,7.43716878 4.11397,10.0205695 C4.11397,13.678703 6.86170197,16.7069972 10.4015834,17.1503638 L10.4015834,18.9579628 L8.15600719,18.9579628 L8.15600719,20.7544238 L10.4015834,20.7544238 L10.4015834,23 L12.1980444,23 L12.1980444,20.7544238 L14.4436206,20.7544238 L14.4436206,18.9579628 L12.1980444,18.9579628 L12.1980444,17.1503638 C15.7379258,16.7069523 18.4856578,13.678703 18.4856578,10.0205695 C18.4856578,7.43366568 17.11141,5.16195096 15.0548215,3.8963442 C17.5040715,2.92661457 19.0135478,1.33023444 19.1029218,1.23403395 L19.1029218,1.23403395 Z M16.6891968,10.0205695 C16.6891968,12.9922752 14.2715196,15.4099524 11.2998139,15.4099524 C8.32810815,15.4099524 5.91043097,12.9922752 5.91043097,10.0205695 C5.91043097,7.04886374 8.32810815,4.63118656 11.2998139,4.63118656 C14.2715196,4.63118656 16.6891968,7.04881883 16.6891968,10.0205695 Z" fill="white" fill-rule="nonzero"></path></g></svg>