<svg xmlns="http://www.w3.org/2000/svg" width="23px" height="23px" viewBox="0 0 23 23"><g stroke="none" stroke-width="1" fill="none" fill-rule="evenodd"><g transform="translate(2.101000, 0.000000)" fill="white" fill-rule="nonzero"><path d="M8.07686328,23 C6.24800391,23 4.42727539,22.5594063 2.81148047,21.7259258 L0,20.275623 L3.15409961,20.0316973 C7.5770625,19.6896172 11.041707,15.9420547 11.041707,11.5 C11.041707,7.05794531 7.5770625,3.31038281 3.15409961,2.96830273 L0,2.72437695 L2.81148047,1.27407422 C4.42723047,0.44059375 6.24795898,0 8.07686328,0 C11.1486211,0 14.0365586,1.19622461 16.2086211,3.36824219 C18.3806836,5.54030469 19.5768633,8.42819727 19.5768633,11.5 C19.5768633,14.5717578 18.3806387,17.4596504 16.2086211,19.6317129 C14.0366035,21.8037754 11.1486211,23 8.07686328,23 Z M6.44875977,21.0686738 C6.98139844,21.1582031 7.52463867,21.203125 8.07686328,21.203125 C13.4271934,21.203125 17.7799883,16.8503301 17.7799883,11.5 C17.7799883,6.14966992 13.4271934,1.796875 8.07686328,1.796875 C7.52463867,1.796875 6.98139844,1.84179688 6.44875977,1.93128125 C7.80827539,2.49460156 9.04326758,3.34811719 10.0685645,4.45076953 C11.8548379,6.37185352 12.838582,8.87530469 12.838582,11.5 C12.838582,14.1246953 11.8548379,16.6281465 10.0685645,18.5491855 C9.04326758,19.6518828 7.80823047,20.5053984 6.44875977,21.0686738 Z"></path></g></g></svg>