<svg xmlns="http://www.w3.org/2000/svg" width="23px" height="23px" viewBox="0 0 23 23"><g stroke="none" stroke-width="1" fill="none" fill-rule="evenodd"><g transform="translate(6.000000, 1.000000)" fill="white" fill-rule="nonzero"><path d="M11.6129032,18.375 L2.70967742,18.375 L2.70967742,13.5 L3.09677419,13.5 C6.93870968,13.5 10.0645161,10.471875 10.0645161,6.75 C10.0645161,3.028125 6.93870968,0 3.09677419,0 L0.387096774,0 C0.173032258,0 0,0.167625 0,0.375 L0,20.625 C0,20.832375 0.173032258,21 0.387096774,21 L11.6129032,21 C11.8269677,21 12,20.832375 12,20.625 L12,18.75 C12,18.542625 11.8269677,18.375 11.6129032,18.375 Z M3.09677419,10.875 L2.70967742,10.875 L2.70967742,2.625 L3.09677419,2.625 C5.24593548,2.625 7.35483871,4.668 7.35483871,6.75 C7.35483871,8.832 5.24593548,10.875 3.09677419,10.875 Z"></path></g></g></svg>